# File created by Blade
# Date/Time:  Tue Jan 27 17:08:52 2015
# Frame Rate: 120.000 fps
#------------------------------------------------------
:FULLY-SPECIFIED
:DEGREES
3509
root -0.407436 39.139750 -0.617242 48.565089 -21.704408 -57.999817
Spine -1.773083 17.587093 23.235320
Head -11.060614 -33.188461 28.432575
LeftShoulder -7.889395 -5.100541 14.650566
LeftArm -28.271541 -49.437872 -24.702948
LeftForeArm -3.363897 -0.000000 139.975964
LeftHand -25.010771 -0.000000 22.535883
LeftHandThumb1 -26.253704 0.000000 33.147579
RightShoulder -1.205211 -20.610439 2.287281
RightArm 33.757928 -31.021164 41.782683
RightForeArm 157.537090 -0.000000 72.709367
RightHand 3.054029 -0.000000 1.209750
RightHandThumb1 -24.326973 -0.000000 -32.862282
LeftUpLeg -23.390050 21.484870 44.445890
LeftLeg 22.337507 -0.000000 -0.000000
LeftFoot -22.114713 16.945754 -12.521950
LeftToeBase 13.046298 -0.000000 -0.000000
RightUpLeg -33.968385 -21.631106 -27.947760
RightLeg 9.507808 -0.000000 -0.000000
RightFoot -2.404185 -22.760689 2.227838
RightToeBase 2.966020 -0.000000 -0.000000
3510
root -0.421339 39.141873 -0.632762 48.457317 -21.328388 -58.059459
Spine -1.689205 17.402125 23.485395
Head -11.134587 -33.286646 28.573524
LeftShoulder -7.874147 -5.193155 14.731645
LeftArm -28.289197 -49.762727 -24.681042
LeftForeArm -3.717387 -0.000000 140.386471
LeftHand -25.063550 -0.000000 22.030167
LeftHandThumb1 -26.253704 0.000000 33.147579
RightShoulder -1.158720 -20.532418 2.213531
RightArm 33.713878 -31.008133 41.741608
RightForeArm 157.765636 -0.000000 72.680957
RightHand 3.108577 -0.000000 0.996942
RightHandThumb1 -24.326973 -0.000000 -32.862282
LeftUpLeg -23.538073 21.357502 44.759166
LeftLeg 22.446067 -0.000000 -0.000000
LeftFoot -22.115043 16.870256 -12.521656
LeftToeBase 13.050494 -0.000000 -0.000000
RightUpLeg -34.078573 -22.226748 -27.381454
RightLeg 10.287978 -0.000000 -0.000000
RightFoot -2.455984 -22.742752 4.152878
RightToeBase 2.994323 -0.000000 -0.000000
3511
root -0.436052 39.145656 -0.649920 48.338389 -20.946452 -58.130139
Spine -1.568635 17.206059 23.754243
Head -11.266967 -33.414170 28.723585
LeftShoulder -7.883193 -5.286864 14.803367
LeftArm -28.319698 -50.048913 -24.630557
LeftForeArm -4.024040 0.000000 140.792602
LeftHand -25.029119 0.000000 21.559272
LeftHandThumb1 -26.253704 0.000000 33.147579
RightShoulder -1.106616 -20.498334 2.156237
RightArm 33.745048 -30.952151 41.602792
RightForeArm 157.934611 0.000000 72.680501
RightHand 3.153615 -0.000000 0.828698
RightHandThumb1 -24.326973 -0.000000 -32.862282
LeftUpLeg -23.679388 21.280412 45.080957
LeftLeg 22.551524 -0.000000 -0.000000
LeftFoot -22.083126 16.761932 -12.455524
LeftToeBase 13.026319 -0.000000 -0.000000
RightUpLeg -34.329794 -22.967090 -26.656703
RightLeg 11.494868 -0.000000 -0.000000
RightFoot -1.843772 -22.292671 5.951617
RightToeBase 2.633760 -0.000000 -0.000000
3512
root -0.448441 39.151530 -0.671480 48.286421 -20.581367 -58.217732
Spine -1.509533 17.043042 24.000613
Head -11.410347 -33.523998 28.862167
LeftShoulder -7.891715 -5.331570 14.839249
LeftArm -28.387638 -50.328707 -24.457112
LeftForeArm -4.408933 -0.000000 141.183132
LeftHand -25.142818 0.000000 21.317137
LeftHandThumb1 -26.253704 0.000000 33.147579
RightShoulder -1.018405 -20.415650 2.077824
RightArm 33.701838 -30.917931 41.571830
RightForeArm 157.945578 0.000000 72.671532
RightHand 3.111593 -0.000000 0.714105
RightHandThumb1 -24.326973 -0.000000 -32.862282
LeftUpLeg -23.864190 21.314184 45.391850
LeftLeg 22.680945 -0.000000 -0.000000
LeftFoot -22.046554 16.501396 -12.467928
LeftToeBase 13.014635 -0.000000 -0.000000
RightUpLeg -34.780582 -23.800757 -25.788113
RightLeg 13.047445 -0.000000 -0.000000
RightFoot -0.710596 -21.469583 6.891014
RightToeBase 2.768275 -0.000000 -0.000000
3513
root -0.460376 39.157388 -0.694962 48.285287 -20.251260 -58.279503
Spine -1.534069 16.912875 24.168016
Head -11.571862 -33.606927 28.980963
LeftShoulder -7.921700 -5.336639 14.894148
LeftArm -28.389667 -50.599237 -24.337956
LeftForeArm -4.763575 -0.000000 141.506417
LeftHand -25.140397 -0.000000 21.036889
LeftHandThumb1 -26.253704 0.000000 33.147579
RightShoulder -0.947588 -20.363417 2.042860
RightArm 33.675082 -30.885951 41.513205
RightForeArm 157.908456 -0.000000 72.687515
RightHand 3.145410 -0.000000 0.621709
RightHandThumb1 -24.326973 -0.000000 -32.862282
LeftUpLeg -24.096996 21.448782 45.637525
LeftLeg 22.821671 -0.000000 -0.000000
LeftFoot -21.994696 16.147406 -12.481554
LeftToeBase 13.046317 -0.000000 -0.000000
RightUpLeg -35.329170 -24.492848 -25.004399
RightLeg 14.881725 -0.000000 -0.000000
RightFoot 0.745224 -20.496124 7.117227
RightToeBase 3.535410 -0.000000 -0.000000
3514
root -0.474066 39.160928 -0.715389 48.251256 -19.965493 -58.325860
Spine -1.547036 16.852515 24.278330
Head -11.666962 -33.714138 29.162720
LeftShoulder -7.885225 -5.303580 14.967071
LeftArm -28.354744 -50.882231 -24.250165
LeftForeArm -5.020613 -0.000000 141.809781
LeftHand -25.184811 -0.000000 20.795637
LeftHandThumb1 -26.253704 0.000000 33.147579
RightShoulder -0.934535 -20.350999 2.090041
RightArm 33.649544 -30.810514 41.421903
RightForeArm 157.843347 -0.000000 72.725467
RightHand 3.186418 -0.000000 0.544405
RightHandThumb1 -24.326973 -0.000000 -32.862282
LeftUpLeg -24.284302 21.645421 45.818041
LeftLeg 22.923095 -0.000000 -0.000000
LeftFoot -21.950877 15.809540 -12.440916
LeftToeBase 13.078708 -0.000000 -0.000000
RightUpLeg -35.851835 -25.096355 -24.302299
RightLeg 16.825246 -0.000000 -0.000000
RightFoot 2.479869 -19.248681 6.835989
RightToeBase 3.863303 -0.000000 -0.000000
3515
root -0.487909 39.163749 -0.734799 48.224845 -19.674761 -58.317348
Spine -1.627350 16.755602 24.345221
Head -11.749241 -33.835906 29.272145
LeftShoulder -7.853745 -5.299930 15.041069
LeftArm -28.305273 -51.118809 -24.145987
LeftForeArm -5.225715 -0.000000 142.039315
LeftHand -25.235876 -0.000000 20.602992
LeftHandThumb1 -26.253704 0.000000 33.147579
RightShoulder -0.921167 -20.448732 2.148564
RightArm 33.720384 -30.656058 41.295687
RightForeArm 157.697898 -0.000000 72.724330
RightHand 3.154012 0.000000 0.443616
RightHandThumb1 -24.326973 -0.000000 -32.862282
LeftUpLeg -24.520539 21.840435 45.942103
LeftLeg 23.000369 -0.000000 -0.000000
LeftFoot -21.881360 15.461740 -12.399367
LeftToeBase 13.064963 -0.000000 -0.000000
RightUpLeg -36.411674 -25.660697 -23.663618
RightLeg 19.004111 -0.000000 -0.000000
RightFoot 3.989291 -17.797511 6.948499
RightToeBase 4.352323 -0.000000 -0.000000
3516
root -0.499988 39.168174 -0.753914 48.193527 -19.424496 -58.320928
Spine -1.668636 16.727066 24.394980
Head -11.900454 -33.992929 29.407201
LeftShoulder -7.832702 -5.268638 15.120226
LeftArm -28.142006 -51.350940 -24.163316
LeftForeArm -5.514103 -0.000000 142.214055
LeftHand -25.214367 -0.000000 20.414917
LeftHandThumb1 -26.253704 0.000000 33.147579
RightShoulder -0.949361 -20.434300 2.233150
RightArm 33.691196 -30.567759 41.242729
RightForeArm 157.456014 -0.000000 72.732743
RightHand 3.127732 -0.000000 0.468103
RightHandThumb1 -24.326973 -0.000000 -32.862282
LeftUpLeg -24.705353 22.058934 46.048387
LeftLeg 23.048024 -0.000000 -0.000000
LeftFoot -21.794768 15.127345 -12.311469
LeftToeBase 13.063435 -0.000000 -0.000000
RightUpLeg -36.928241 -26.080634 -23.080605
RightLeg 21.214941 -0.000000 -0.000000
RightFoot 5.395520 -16.213382 6.922245
RightToeBase 5.000123 -0.000000 -0.000000
3517
root -0.511248 39.171406 -0.768550 48.131221 -19.159039 -58.283483
Spine -1.709940 16.673213 24.446035
Head -12.050443 -34.133991 29.533724
LeftShoulder -7.814437 -5.274181 15.210643
LeftArm -27.930762 -51.496416 -24.238674
LeftForeArm -5.607369 0.000000 142.311602
LeftHand -25.310408 -0.000000 20.274980
LeftHandThumb1 -26.253704 0.000000 33.147579
RightShoulder -1.002493 -20.436403 2.339918
RightArm 33.691064 -30.444676 41.161369
RightForeArm 157.184999 0.000000 72.722919
RightHand 3.067507 -0.000000 0.449831
RightHandThumb1 -24.326973 -0.000000 -32.862282
LeftUpLeg -24.892505 22.206006 46.126891
LeftLeg 23.058665 -0.000000 -0.000000
LeftFoot -21.723394 14.848269 -12.241456
LeftToeBase 13.115180 -0.000000 -0.000000
RightUpLeg -37.449288 -26.505278 -22.523110
RightLeg 23.603156 -0.000000 -0.000000
RightFoot 6.471066 -14.471139 7.277587
RightToeBase 5.645546 -0.000000 -0.000000
3518
root -0.525732 39.174990 -0.784013 48.046639 -18.916023 -58.225522
Spine -1.732010 16.622414 24.454692
Head -12.255488 -34.259828 29.667666
LeftShoulder -7.777999 -5.375761 15.333750
LeftArm -27.858067 -51.582945 -24.166246
LeftForeArm -5.815097 -0.000000 142.327859
LeftHand -25.382774 0.000000 20.096755
LeftHandThumb1 -26.253704 0.000000 33.147579
RightShoulder -1.043473 -20.373050 2.444968
RightArm 33.612239 -30.388524 41.145346
RightForeArm 157.088168 -0.000000 72.721156
RightHand 3.148269 -0.000000 0.647635
RightHandThumb1 -24.326973 -0.000000 -32.862282
LeftUpLeg -25.053264 22.278171 46.199279
LeftLeg 23.060904 -0.000000 -0.000000
LeftFoot -21.647722 14.626102 -12.183477
LeftToeBase 13.101823 -0.000000 -0.000000
RightUpLeg -37.921467 -26.810823 -22.036841
RightLeg 26.055966 -0.000000 -0.000000
RightFoot 7.507991 -12.780128 7.500094
RightToeBase 5.591717 -0.000000 -0.000000
3519
root -0.539957 39.177537 -0.798038 47.945210 -18.684188 -58.126062
Spine -1.767062 16.582431 24.417089
Head -12.442603 -34.384450 29.857760
LeftShoulder -7.704882 -5.448879 15.450140
LeftArm -27.741778 -51.636843 -24.125688
LeftForeArm -5.901307 -0.000000 142.268261
LeftHand -25.413344 0.000000 20.137857
LeftHandThumb1 -26.253704 0.000000 33.147579
RightShoulder -1.107223 -20.357513 2.574891
RightArm 33.542070 -30.285246 41.154357
RightForeArm 157.097133 -0.000000 72.701827
RightHand 3.128522 0.000000 0.805881
RightHandThumb1 -24.326973 -0.000000 -32.862282
LeftUpLeg -25.223125 22.265787 46.235616
LeftLeg 23.064255 -0.000000 -0.000000
LeftFoot -21.584469 14.490942 -12.140587
LeftToeBase 13.130924 -0.000000 -0.000000
RightUpLeg -38.390128 -27.062328 -21.607411
RightLeg 28.634352 -0.000000 -0.000000
RightFoot 8.431595 -11.162665 7.633970
RightToeBase 5.275608 -0.000000 -0.000000
3520
root -0.555013 39.177886 -0.813507 47.842181 -18.440031 -57.997782
Spine -1.803664 16.519134 24.382807
Head -12.685154 -34.497010 30.015344
LeftShoulder -7.603401 -5.622221 15.538746
LeftArm -27.719581 -51.524217 -23.905750
LeftForeArm -5.553697 -0.000000 142.105363
LeftHand -25.567748 -0.000000 20.431801
LeftHandThumb1 -26.253704 0.000000 33.147579
RightShoulder -1.128206 -20.341616 2.635962
RightArm 33.393998 -30.152325 41.300027
RightForeArm 156.860175 -0.000000 72.733808
RightHand 3.146296 -0.000000 0.957462
RightHandThumb1 -24.326973 -0.000000 -32.862282
LeftUpLeg -25.405272 22.192498 46.268001
LeftLeg 23.029214 -0.000000 -0.000000
LeftFoot -21.531668 14.385827 -12.088615
LeftToeBase 13.164122 -0.000000 -0.000000
RightUpLeg -38.871146 -27.305912 -21.179283
RightLeg 31.308026 -0.000000 -0.000000
RightFoot 9.282149 -9.702098 7.783728
RightToeBase 4.781740 -0.000000 -0.000000
3521
root -0.574429 39.177398 -0.825745 47.656668 -18.176438 -57.845658
Spine -1.760901 16.372754 24.376669
Head -12.942855 -34.566595 30.151516
LeftShoulder -7.513017 -5.728823 15.631450
LeftArm -27.768218 -51.608427 -23.628589
LeftForeArm -5.758992 -0.000000 141.883710
LeftHand -25.642434 -0.000000 20.587273
LeftHandThumb1 -26.253704 0.000000 33.147579
RightShoulder -1.150437 -20.369283 2.677679
RightArm 33.363489 -29.989466 41.396480
RightForeArm 156.696645 -0.000000 72.723489
RightHand 3.186941 -0.000000 1.035762
RightHandThumb1 -24.326973 -0.000000 -32.862282
LeftUpLeg -25.536262 22.005265 46.319837
LeftLeg 22.979498 -0.000000 -0.000000
LeftFoot -21.489018 14.342679 -12.033575
LeftToeBase 13.184949 -0.000000 -0.000000
RightUpLeg -39.283025 -27.540177 -20.759267
RightLeg 34.076206 -0.000000 -0.000000
RightFoot 9.849758 -8.467412 8.225364
RightToeBase 4.904459 -0.000000 -0.000000
